<svg id="Acordeón" xmlns="http://www.w3.org/2000/svg" viewBox="0 0 112.08 113.82"><defs><style>.cls-1{fill:#567fef;}.cls-2{font-size:14px;font-family:Helvetica Neue;font-weight:700;}.cls-2,.cls-3{fill:#fff;}</style></defs><title>acordeon</title><rect class="cls-1" width="112.08" height="112.08" rx="9.35" ry="9.35"/><text x="-2.58" y="-2.58"/><text class="cls-2" transform="translate(23.63 102.21)">Aco<tspan x="26.18" y="0">r</tspan><tspan x="31.37" y="0">deón</tspan></text><path class="cls-3" d="M101.85,28.82a1.55,1.55,0,0,1-1.49,1.61H16.41a1.55,1.55,0,0,1-1.49-1.61v-10a1.55,1.55,0,0,1,1.49-1.61h83.94a1.55,1.55,0,0,1,1.49,1.61v10Z" transform="translate(-2.58 -2.58)"/><path class="cls-3" d="M100.36,18.25a1.57,1.57,0,0,1,.49,1.33V55a1.59,1.59,0,0,1-.48,1.33h-84A1.56,1.56,0,0,1,15.92,55V19.58a1.59,1.59,0,0,1,.48-1.33h84m0-1h-84c-0.82,0-1.48,1-1.48,2.33V55c0,1.28.66,2.33,1.48,2.33h84c0.82,0,1.48-1,1.48-2.33V19.58c0-1.28-.66-2.33-1.48-2.33h0Z" transform="translate(-2.58 -2.58)"/><path class="cls-3" d="M100.55,82.94H16.31a1.45,1.45,0,0,1-1.4-1.51V72.87a1.45,1.45,0,0,1,1.4-1.51h84.24a1.45,1.45,0,0,1,1.4,1.51v8.57A1.45,1.45,0,0,1,100.55,82.94Z" transform="translate(-2.58 -2.58)"/><path class="cls-3" d="M100.79,70.18H16.07a1.2,1.2,0,0,1-1.15-1.24v-9.1a1.2,1.2,0,0,1,1.15-1.24h84.73a1.2,1.2,0,0,1,1.15,1.24v9.1A1.2,1.2,0,0,1,100.79,70.18Z" transform="translate(-2.58 -2.58)"/><rect class="cls-3" x="15.34" y="34.07" width="80.44" height="2.29"/><rect class="cls-3" x="15.34" y="38.11" width="80.44" height="2.29"/><rect class="cls-3" x="15.34" y="41.91" width="80.44" height="2.29"/><rect class="cls-3" x="68.86" y="45.71" width="26.92" height="2.29"/></svg>