<svg id="Carta_giratoria" data-name="Carta giratoria" xmlns="http://www.w3.org/2000/svg" viewBox="0 0 112.08 113.82"><defs><style>.cls-1{fill:#016f6e;}.cls-2{font-size:14px;font-family:Helvetica Neue;font-weight:700;}.cls-2,.cls-4{fill:#fff;}.cls-3{fill:none;stroke:#fff;stroke-miterlimit:10;stroke-width:2px;}</style></defs><title>cartg</title><rect class="cls-1" width="112.08" height="112.08" rx="9.35" ry="9.35"/><text x="-2.58" y="-2.58"/><text class="cls-2" transform="translate(7.57 102.21)">Carta giratoria</text><path class="cls-3" d="M83.57,28.33H33.68A6.74,6.74,0,0,0,27,35.14V63.28a6.74,6.74,0,0,0,6.66,6.8H83.57a6.74,6.74,0,0,0,6.66-6.8V35.14A6.74,6.74,0,0,0,83.57,28.33Z" transform="translate(-2.58 -2.58)"/><path class="cls-4" d="M48.91,20.48H64.78l-3,2.94a1.51,1.51,0,0,0,0,2.1,1.44,1.44,0,0,0,2.06,0l5.51-5.4a1.65,1.65,0,0,0,0-2.35l-5.51-5.4a1.44,1.44,0,0,0-2.06,0,1.51,1.51,0,0,0,0,2.1l3,2.94H48.91A1.49,1.49,0,0,0,48.91,20.48Z" transform="translate(-2.58 -2.58)"/><path class="cls-4" d="M68.34,77.94H52.47l3-2.94a1.51,1.51,0,0,0,0-2.1,1.44,1.44,0,0,0-2.06,0l-5.52,5.41a1.65,1.65,0,0,0,0,2.34L53.45,86a1.44,1.44,0,0,0,2.06,0,1.51,1.51,0,0,0,0-2.1l-3-2.94H68.34A1.49,1.49,0,0,0,68.34,77.94Z" transform="translate(-2.58 -2.58)"/></svg>