<svg id="Codigo" xmlns="http://www.w3.org/2000/svg" viewBox="0 0 112.08 113.82"><defs><style>.cls-1{fill:#e7aa13;}.cls-2{font-size:14px;}.cls-2,.cls-3,.cls-4{fill:#fff;}.cls-2,.cls-4{font-family:Helvetica Neue;font-weight:700;}.cls-4{font-size:38.44px;}</style></defs><title>code</title><rect class="cls-1" width="112.08" height="112.08" rx="9.35" ry="9.35"/><text x="-2.58" y="-2.58"/><text class="cls-2" transform="translate(31.94 102.21)">Código</text><path class="cls-3" d="M58.68,12.89h37c3.39,0,4.65,1.18,4.65,4.62q0,32.41,0,64.82c0,3.43-1.38,4.72-4.87,4.72H21.64c-3.55,0-4.76-1.22-4.76-4.74q0-32.41,0-64.82c0-3.53,1.06-4.6,4.56-4.61H58.68Zm-0.19,13c-10.81,0-21.62,0-32.44,0-1.44,0-2.07.22-2.07,1.9Q24.08,52.86,24,78c0,1.39.43,1.74,1.77,1.73q32.75-.06,65.5,0c1.51,0,1.81-.47,1.81-1.88q-0.07-25,0-50c0-1.54-.36-2-1.94-2C80.25,25.92,69.37,25.89,58.49,25.89Zm-18-8.47a2.37,2.37,0,0,0-2.53,2.34,2.41,2.41,0,0,0,2.49,2.5,2.3,2.3,0,0,0,2.31-2.45A2.3,2.3,0,0,0,40.44,17.42ZM26,17.41a2.42,2.42,0,0,0,0,4.84,2.45,2.45,0,0,0,2.51-2.49A2.42,2.42,0,0,0,26,17.41Zm7.29,0a2.45,2.45,0,0,0-2.52,2.34,2.48,2.48,0,0,0,2.51,2.5A2.42,2.42,0,0,0,33.25,17.41Z" transform="translate(-2.58 -2.58)"/><text class="cls-4" transform="translate(26.56 60.38)">&lt;/&gt;</text></svg>