<svg id="Layer_4" data-name="Layer 4" xmlns="http://www.w3.org/2000/svg" viewBox="0 0 804.66 845.61"><defs><style>.cls-1{fill:#e28810;}.cls-2{fill:#fff;}.cls-3{fill:#e0f3fc;}</style></defs><title>design</title><circle class="cls-1" cx="644.37" cy="604.13" r="160.29"/><circle class="cls-1" cx="100.81" cy="168.41" r="100.81"/><rect class="cls-2" x="84.68" y="115.9" width="569.16" height="723.09" rx="39.36" ry="39.36"/><path d="M716.14,926.8H225.71a46,46,0,0,1-46-46V236.46a46,46,0,0,1,46-46h112a6.62,6.62,0,1,1,0,13.23h-112A32.78,32.78,0,0,0,193,236.46V880.83a32.78,32.78,0,0,0,32.75,32.74H716.14a32.78,32.78,0,0,0,32.74-32.74V236.46a32.78,32.78,0,0,0-32.74-32.74H602.35a6.62,6.62,0,1,1,0-13.23H716.14a46,46,0,0,1,46,46V880.83A46,46,0,0,1,716.14,926.8Z" transform="translate(-101.67 -81.2)"/><rect class="cls-3" x="111.21" y="140.01" width="516.09" height="674.88" rx="19.26" ry="19.26"/><path class="cls-1" d="M576.63,151.25H527.13c0-26.47-25.44-56.82-56.82-56.82s-56.82,30.36-56.82,56.82H364c-14.4,0-32.93,8.29-32.93,22.69v62c0,14.4,18.52,34.43,32.93,34.43H576.63c14.4,0,19.11-20,19.11-34.43v-62C595.73,159.54,591,151.25,576.63,151.25Z" transform="translate(-101.67 -81.2)"/><path d="M709.71,902.7H232.14a25.91,25.91,0,0,1-25.88-25.88V240.46a25.91,25.91,0,0,1,25.88-25.88H337.69a6.62,6.62,0,1,1,0,13.23H232.14a12.66,12.66,0,0,0-12.64,12.65V876.83a12.66,12.66,0,0,0,12.64,12.64H709.71a12.66,12.66,0,0,0,12.65-12.64V240.46a12.66,12.66,0,0,0-12.65-12.65H602.35a6.62,6.62,0,1,1,0-13.23H709.71a25.91,25.91,0,0,1,25.88,25.88V876.83A25.91,25.91,0,0,1,709.71,902.7Z" transform="translate(-101.67 -81.2)"/><path d="M576.63,270.35H364c-17.54,0-32.93-16.09-32.93-34.43v-62c0-17,14.08-35.92,32.93-35.92h43.33c3.72-27.61,29.92-56.82,63-56.82s59.26,29.21,63,56.82h43.33c19.06,0,32.34,18.93,32.34,35.92v62C609,254.58,594.16,270.35,576.63,270.35ZM364,151.25c-9.94,0-19.69,11.24-19.69,22.69v62c0,11.09,9.39,21.2,19.69,21.2H576.63c10.18,0,19.11-9.9,19.11-21.2v-62c0-10.49-8.35-22.69-19.11-22.69h-49.5a6.61,6.61,0,0,1-6.62-6.62c0-22.74-22.4-50.2-50.2-50.2s-50.2,27.47-50.2,50.2a6.61,6.61,0,0,1-6.62,6.62H364Z" transform="translate(-101.67 -81.2)"/><path d="M543.56,203.72H396.48a6.62,6.62,0,0,1,0-13.23H543.56A6.62,6.62,0,0,1,543.56,203.72Z" transform="translate(-101.67 -81.2)"/><path d="M379.51,519.29H327.57a33.44,33.44,0,0,1-33.41-33.41V416.52a33.44,33.44,0,0,1,33.41-33.41h51.94a6.62,6.62,0,0,1,0,13.23H327.57a20.2,20.2,0,0,0-20.17,20.17v69.36a20.2,20.2,0,0,0,20.17,20.17h51.94A6.62,6.62,0,0,1,379.51,519.29Z" transform="translate(-101.67 -81.2)"/><path d="M358.56,548.16a6.62,6.62,0,0,1-4.68-11.3l24.19-24.19-24.19-24.19a6.62,6.62,0,1,1,9.36-9.36L392.1,508a6.61,6.61,0,0,1,0,9.36l-28.87,28.87A6.6,6.6,0,0,1,358.56,548.16Z" transform="translate(-101.67 -81.2)"/><path d="M379.51,765.18H327.57a33.44,33.44,0,0,1-33.41-33.41V662.4A33.44,33.44,0,0,1,327.57,629h51.94a6.62,6.62,0,0,1,0,13.23H327.57a20.2,20.2,0,0,0-20.17,20.17v69.37a20.2,20.2,0,0,0,20.17,20.17h51.94A6.62,6.62,0,0,1,379.51,765.18Z" transform="translate(-101.67 -81.2)"/><path d="M358.56,794a6.62,6.62,0,0,1-4.68-11.29l24.19-24.19-24.19-24.2a6.62,6.62,0,0,1,9.36-9.36l28.87,28.88a6.62,6.62,0,0,1,0,9.36l-28.87,28.87A6.59,6.59,0,0,1,358.56,794Z" transform="translate(-101.67 -81.2)"/><path d="M614.29,642.23H562.34a6.62,6.62,0,0,1,0-13.23h51.94a20.2,20.2,0,0,0,20.17-20.17V539.46a20.2,20.2,0,0,0-20.17-20.17H562.34a6.62,6.62,0,0,1,0-13.23h51.94a33.44,33.44,0,0,1,33.41,33.41v69.36A33.44,33.44,0,0,1,614.29,642.23Z" transform="translate(-101.67 -81.2)"/><path d="M583.3,671.11a6.6,6.6,0,0,1-4.68-1.94l-28.87-28.88a6.62,6.62,0,0,1,0-9.36l28.87-28.87a6.62,6.62,0,1,1,9.36,9.36l-24.19,24.19L588,659.81A6.62,6.62,0,0,1,583.3,671.11Z" transform="translate(-101.67 -81.2)"/><path d="M521.8,551.19H420.05a6.61,6.61,0,0,1-6.62-6.62V480.76a6.61,6.61,0,0,1,6.62-6.62H521.8a6.61,6.61,0,0,1,6.62,6.62v63.81A6.61,6.61,0,0,1,521.8,551.19ZM426.67,538h88.51V487.38H426.67V538Z" transform="translate(-101.67 -81.2)"/><path d="M521.8,428.25H420.05a6.61,6.61,0,0,1-6.62-6.62V357.82a6.61,6.61,0,0,1,6.62-6.62H521.8a6.61,6.61,0,0,1,6.62,6.62v63.82A6.61,6.61,0,0,1,521.8,428.25ZM426.67,415h88.51V364.43H426.67V415Z" transform="translate(-101.67 -81.2)"/><path d="M521.8,797.08H420.05a6.61,6.61,0,0,1-6.62-6.62V726.65a6.61,6.61,0,0,1,6.62-6.62H521.8a6.61,6.61,0,0,1,6.62,6.62v63.82A6.61,6.61,0,0,1,521.8,797.08Zm-95.13-13.23h88.51V733.26H426.67v50.59Z" transform="translate(-101.67 -81.2)"/><path d="M521.8,674.14H420.05a6.61,6.61,0,0,1-6.62-6.62V603.71a6.61,6.61,0,0,1,6.62-6.62H521.8a6.61,6.61,0,0,1,6.62,6.62v63.82A6.61,6.61,0,0,1,521.8,674.14Zm-95.13-13.23h88.51V610.32H426.67v50.59Z" transform="translate(-101.67 -81.2)"/></svg>