<svg id="Slider" xmlns="http://www.w3.org/2000/svg" viewBox="0 0 112.08 112.08"><defs><style>.cls-1{fill:#8c264d;}.cls-2{fill:#fffafc;}.cls-3{isolation:isolate;font-size:14px;font-family:Helvetica Neue;font-weight:700;}.cls-3,.cls-5{fill:#fff;}.cls-4{fill:#01a4a9;}</style></defs><title>modal</title><rect class="cls-1" width="112.08" height="112.08" rx="9.35" ry="9.35"/><path class="cls-2" d="M77.74,26.42l-2.09-2h4.43a6.08,6.08,0,0,1,6.07,6v13h4.07v-13A10.16,10.16,0,0,0,80.08,20.3H75.65l2.09-2.09-2.88-2.89-7,7,7,7Z"/><path class="cls-2" d="M27.42,66.71l2.41,2.41H27.59a6.09,6.09,0,0,1-6.09-6.07V53.67H17.42V63A10.17,10.17,0,0,0,27.59,73.2h2.23l-2.4,2.41,2.88,2.88,7.33-7.34L30.3,63.82Z"/><path class="cls-2" d="M75.55,61.82l-6.27,5.81-8.44-8.21L43.32,83.24H92.23Zm-14.2,3.82L71.06,75l2.83-2.93-1.67-1.68,2.85-2.64L83.9,79.12H51.42Z"/><circle class="cls-2" cx="82.59" cy="58.61" r="2.59"/><polygon class="cls-2" points="14.63 35.44 53.46 35.44 53.46 44.3 57.54 44.3 57.54 31.36 10.56 31.36 10.56 59.48 18.37 59.48 18.37 55.41 14.63 55.41 14.63 35.44"/><rect class="cls-2" x="26.12" y="55.41" width="11.89" height="4.08"/><polygon class="cls-2" points="33.37 18.03 59.07 18.03 59.07 28.13 63.14 28.13 63.14 13.96 29.29 13.96 29.29 28.13 33.37 28.13 33.37 18.03"/><polygon class="cls-2" points="62.63 44.3 66.71 44.3 66.71 35.45 81.47 35.52 81.5 31.44 62.63 31.35 62.63 44.3"/><polygon class="cls-2" points="88.18 31.36 88.18 35.44 97.45 35.44 97.45 57.44 101.53 57.44 101.53 31.36 88.18 31.36"/><path class="cls-2" d="M42.27,83.24H93.14V48.62H42.27V83.24Zm4.08-30.55H89.06V79.17H46.35V52.7h0Z"/><text class="cls-3" transform="translate(36.87 102.21)">Slider</text><rect class="cls-4" width="112.08" height="112.08" rx="9.35" ry="9.35"/><text class="cls-3" transform="translate(35.31 102.21)">PopUp</text><path class="cls-5" d="M40.92,54.59H53.25a0.38,0.38,0,0,0,.12-0.75H40.92a0.38,0.38,0,0,0-.12.75h0.12ZM89.76,73.9H64.17a1.45,1.45,0,0,0-.47.08l-4.58,1.59H47L43,74a1.46,1.46,0,0,0-.53-0.1H15.89a1.38,1.38,0,0,0-1.4,1.35v2.48a6.85,6.85,0,0,0,6.93,6.69H84.2a6.84,6.84,0,0,0,7-6.68h0V75.25a1.38,1.38,0,0,0-1.41-1.35h0ZM40.92,57H53.25a0.38,0.38,0,0,0,.12-0.75H40.92a0.38,0.38,0,0,0-.12.75h0.12Zm0,2.37H53.25a0.38,0.38,0,0,0,.12-0.75H40.92a0.38,0.38,0,0,0-.12.75h0.12Zm-3.31-5.45H31.84v5.54H37.6V53.87h0ZM22.53,70.63H83.11a1.38,1.38,0,0,0,1.4-1.35V54.42L81.7,56.6V67.92H23.93V33h5.31V30.3H22.53a1.38,1.38,0,0,0-1.4,1.35V69.28A1.38,1.38,0,0,0,22.53,70.63Zm6.71-35h-1.4A1.38,1.38,0,0,0,26.42,37V64.42a1.38,1.38,0,0,0,1.4,1.35H77.57A1.38,1.38,0,0,0,79,64.42h0V58.7l-2.81,2.18v2.21H29.24V35.63Z"/><path class="cls-5" d="M90.67,10.53H39a6.83,6.83,0,0,0-6.94,6.69V43.58A6.82,6.82,0,0,0,39,50.27H71v8.32a1.35,1.35,0,0,0,.8,1.22,1.45,1.45,0,0,0,1.49-.17l12.08-9.37h5.31a6.82,6.82,0,0,0,6.94-6.69V17.22A6.83,6.83,0,0,0,90.67,10.53ZM94.8,43.58a4.06,4.06,0,0,1-4.12,4H84.87a1.44,1.44,0,0,0-.88.3l-10.18,7.9V48.92a1.38,1.38,0,0,0-1.39-1.36H39a4.06,4.06,0,0,1-4.13-4h0V17.22a4.06,4.06,0,0,1,4.12-4H90.67a4.06,4.06,0,0,1,4.13,4h0V43.58ZM64.42,24l-5.09-.65L57,18.83a4.26,4.26,0,0,0-7.52,0l-2.22,4.46L42.09,24a4.13,4.13,0,0,0-3.39,2.75,3.91,3.91,0,0,0,1.06,4.14l3.71,3.41-0.89,5a4,4,0,0,0,1.67,4,4.3,4.3,0,0,0,4.42.31l4.51-2.35,4.64,2.35a4.3,4.3,0,0,0,4.41-.31,4,4,0,0,0,1.67-4L63,34.42l3.75-3.53a3.91,3.91,0,0,0,1.06-4.14A4.13,4.13,0,0,0,64.42,24Zm0.1,4.69-3.76,3.53a2.87,2.87,0,0,0-.88,2.6l0.89,5a0.93,0.93,0,0,1-.4,1,1,1,0,0,1-1.06.07l-4.64-2.35a3.15,3.15,0,0,0-2.84,0L47.19,40.9a1,1,0,0,1-1.06-.07,0.93,0.93,0,0,1-.4-1l0.89-5a2.87,2.87,0,0,0-.88-2.6L42,28.7a0.92,0.92,0,0,1-.26-1A1,1,0,0,1,42.54,27l5.19-.73A3,3,0,0,0,50,24.7l2.32-4.53a1,1,0,0,1,1.81,0l2.32,4.53a3,3,0,0,0,2.29,1.61L64,27a1,1,0,0,1,.81.66,0.92,0.92,0,0,1-.25,1h0Zm24,3.32H73.25A1.54,1.54,0,1,0,73,35.09H88.55A1.54,1.54,0,1,0,88.88,32a1.46,1.46,0,0,0-.33,0h0Zm0-6.53H73.25A1.54,1.54,0,1,0,73,28.56H88.55A1.54,1.54,0,0,0,89,25.51a1.84,1.84,0,0,0-.46,0h0Zm0-6.53H73.25A1.54,1.54,0,0,0,73,22H88.55A1.54,1.54,0,1,0,88.88,19a1.46,1.46,0,0,0-.33,0h0Zm0,19.58H73.25A1.54,1.54,0,0,0,73,41.61H88.55a1.56,1.56,0,0,0,1.83-1.21,1.54,1.54,0,0,0-1.18-1.83,2.12,2.12,0,0,0-.65,0h0Z"/></svg>