<svg id="Layer_1" data-name="Layer 1" xmlns="http://www.w3.org/2000/svg" viewBox="0 0 853.13 845.74"><defs><style>.cls-1{fill:#e0f3fc;}.cls-2{fill:#e28810;}</style></defs><title>publica</title><circle class="cls-1" cx="500.44" cy="498.66" r="419.27" transform="translate(-146.13 840.07) rotate(-80.74)"/><path d="M260,154.35a7.22,7.22,0,0,1,2-9.86h0a7,7,0,0,1,9.71,2h0a6.85,6.85,0,0,1-1.83,9.71h0a7.18,7.18,0,0,1-3.95,1.28h0A7.36,7.36,0,0,1,260,154.35Zm455.24-7h0A7,7,0,0,1,713,137.6h0a6.78,6.78,0,0,1,9.58-2.25h0a6.93,6.93,0,0,1,2.39,9.57h0a7,7,0,0,1-6.05,3.38h0A6.87,6.87,0,0,1,715.22,147.31ZM283.64,139a6.9,6.9,0,0,1,2.53-9.57h0A7.11,7.11,0,0,1,295.9,132h0a7.11,7.11,0,0,1-2.68,9.57h0a6,6,0,0,1-3.52,1h0A7,7,0,0,1,283.64,139Zm407.5-5.49a7.14,7.14,0,0,1-3-9.43h0a7,7,0,0,1,9.58-3h0a7,7,0,0,1,3,9.43h0a7,7,0,0,1-6.2,3.79h0A7.49,7.49,0,0,1,691.14,133.52Zm-382.86-8.17a7,7,0,0,1,3.23-9.43h0v-0.15h0A7.26,7.26,0,0,1,321,119h0a7,7,0,0,1-3.23,9.43h0a6.24,6.24,0,0,1-3.11.7h0A7.06,7.06,0,0,1,308.29,125.35Zm357.94-3.81a7.12,7.12,0,0,1-3.52-9.3h0a7,7,0,0,1,9.3-3.66h0a7.08,7.08,0,0,1,3.52,9.29h0a6.84,6.84,0,0,1-6.34,4.22h0A7.24,7.24,0,0,1,666.23,121.54Zm-332.46-8.31a6.9,6.9,0,0,1,3.81-9.14h0a7,7,0,0,1,9.14,3.8h0a6.84,6.84,0,0,1-3.79,9.16h0a6.27,6.27,0,0,1-2.68.56h0A6.82,6.82,0,0,1,333.77,113.23Zm306.83-2.1h0a7,7,0,0,1-4.22-9h0a7.11,7.11,0,0,1,9-4.22h0a7.1,7.1,0,0,1,4.22,9h0a7.11,7.11,0,0,1-6.62,4.65h0A7.34,7.34,0,0,1,640.59,111.13ZM360,103a6.93,6.93,0,0,1,4.5-8.87h0a7.05,7.05,0,0,1,8.88,4.5h0a7.06,7.06,0,0,1-4.51,8.87h0a5.38,5.38,0,0,1-2.12.29h0A7.09,7.09,0,0,1,360,103Zm254.3-.43h0a7,7,0,0,1-4.78-8.73h0A7.05,7.05,0,0,1,618.21,89h0A7.05,7.05,0,0,1,623,97.75h0a6.91,6.91,0,0,1-6.75,5.06h0A9.74,9.74,0,0,1,614.26,102.54Zm-227.4-8a7.06,7.06,0,0,1,5.06-8.58h0A6.88,6.88,0,0,1,400.38,91h0a7.06,7.06,0,0,1-4.94,8.59h0a8.4,8.4,0,0,1-1.83.28h0A7,7,0,0,1,386.86,94.51Zm200.65,1.26a7.29,7.29,0,0,1-5.5-8.44h0A7.09,7.09,0,0,1,590.47,82h0a7.09,7.09,0,0,1,5.35,8.44h0a7.07,7.07,0,0,1-6.9,5.5h0A4.37,4.37,0,0,1,587.51,95.77ZM414.17,87.89a7,7,0,0,1,5.64-8.17h0A7,7,0,0,1,428,85.36h0a6.94,6.94,0,0,1-5.5,8.17h0a5.33,5.33,0,0,1-1.4.14h0A7.18,7.18,0,0,1,414.17,87.89Zm146,3h0a7.12,7.12,0,0,1-5.91-8h0a7,7,0,0,1,8-5.91h0a7,7,0,0,1,5.91,8h0a7.12,7.12,0,0,1-7,5.91h-1ZM441.91,83.11a7,7,0,0,1,6.2-7.74h0a6.87,6.87,0,0,1,7.74,6.19h0a6.86,6.86,0,0,1-6.05,7.74h-0.85A7,7,0,0,1,441.91,83.11Zm90.83,4.5h0a7,7,0,0,1-6.48-7.45h0a7,7,0,0,1,7.6-6.48h0a7.08,7.08,0,0,1,6.48,7.6h0a7.27,7.27,0,0,1-7,6.48h0A0.65,0.65,0,0,1,532.73,87.6Zm-55.33-.7a7.08,7.08,0,0,1-7.47-6.61h0a7.18,7.18,0,0,1,6.61-7.47h0A7.09,7.09,0,0,1,484,79.45h0a7.08,7.08,0,0,1-6.61,7.45h0Zm27.6-.56a7,7,0,0,1-6.9-7h0a7.1,7.1,0,0,1,7.18-7h0a7.17,7.17,0,0,1,6.9,7.19h0a7,7,0,0,1-7,6.89H505Z" transform="translate(-73.87 -72.26)"/><rect class="cls-1" x="58.63" y="178.56" width="735.86" height="467.52" rx="7.39" ry="7.39"/><path class="cls-2" d="M894.16,199.23H106.71A25.8,25.8,0,0,0,80.91,225V744.14a25.8,25.8,0,0,0,25.79,25.8H894.16A25.8,25.8,0,0,0,920,744.14V225A25.8,25.8,0,0,0,894.16,199.23ZM861,718.34H139.89A7.39,7.39,0,0,1,132.5,711V258.21a7.39,7.39,0,0,1,7.39-7.39H861a7.39,7.39,0,0,1,7.39,7.39V711A7.39,7.39,0,0,1,861,718.34Z" transform="translate(-73.87 -72.26)"/><path d="M894.16,777H106.71a32.87,32.87,0,0,1-32.84-32.84V225a32.87,32.87,0,0,1,32.84-32.84H894.16A32.87,32.87,0,0,1,927,225V744.13A32.87,32.87,0,0,1,894.16,777ZM106.71,206.26A18.78,18.78,0,0,0,88,225V744.13a18.78,18.78,0,0,0,18.76,18.76H894.16a18.78,18.78,0,0,0,18.76-18.76V225a18.78,18.78,0,0,0-18.76-18.76H106.71ZM861,725.39H139.89a14.45,14.45,0,0,1-14.42-14.44V258.21a14.45,14.45,0,0,1,14.42-14.44H861a14.45,14.45,0,0,1,14.42,14.44V710.95A14.45,14.45,0,0,1,861,725.39ZM139.89,257.85l-0.34,453.1L861,711.31a0.34,0.34,0,0,0,.34-0.36V258.21Z" transform="translate(-73.87 -72.26)"/><path d="M508.8,590.94A106.36,106.36,0,1,1,615.17,484.58,106.49,106.49,0,0,1,508.8,590.94Zm0-198.65a92.28,92.28,0,1,0,92.28,92.28A92.4,92.4,0,0,0,508.8,392.3Z" transform="translate(-73.87 -72.26)"/><path d="M495.74,516.44a7,7,0,0,1-5-2.06l-23.5-23.51a7,7,0,1,1,10-10l23.5,23.51A7,7,0,0,1,495.74,516.44Z" transform="translate(-73.87 -72.26)"/><path d="M495.74,516.44a7,7,0,0,1-5-12l49.63-49.64a7,7,0,0,1,10,10l-49.63,49.64A7,7,0,0,1,495.74,516.44Z" transform="translate(-73.87 -72.26)"/><rect class="cls-2" x="398.4" y="697.68" width="56.32" height="70.41"/><path d="M528.59,847.37H472.27a7,7,0,0,1-7-7V769.93a7,7,0,0,1,7-7h56.32a7,7,0,0,1,7,7v70.41A7,7,0,0,1,528.59,847.37Zm-49.28-14.08h42.24V777H479.31v56.32Z" transform="translate(-73.87 -72.26)"/><rect class="cls-2" x="243.51" y="769.33" width="366.11" height="56.32"/><path d="M683.48,904.95H317.38a7,7,0,0,1-7-7V841.58a7,7,0,0,1,7-7H683.48a7,7,0,0,1,7,7v56.32A7,7,0,0,1,683.48,904.95ZM324.42,890.87h352V848.62h-352v42.24Z" transform="translate(-73.87 -72.26)"/></svg>