<svg id="Slider" xmlns="http://www.w3.org/2000/svg" viewBox="0 0 112.08 113.82"><defs><style>.cls-1{fill:#8c264d;}.cls-2{fill:#fffafc;}.cls-3{font-size:14px;fill:#fff;font-family:Helvetica Neue;font-weight:700;}</style></defs><title>slider</title><rect class="cls-1" width="112.08" height="112.08" rx="9.35" ry="9.35"/><text x="-2.58" y="-2.58"/><path class="cls-2" d="M80.32,29L78.23,27h4.43A6.08,6.08,0,0,1,88.73,33V46H92.8V33A10.16,10.16,0,0,0,82.66,22.88H78.23l2.09-2.09L77.44,17.9l-7,7,7,7Z" transform="translate(-2.58 -2.58)"/><path class="cls-2" d="M30,69.29l2.41,2.41H30.17a6.09,6.09,0,0,1-6.09-6.07V56.25H20v9.38A10.17,10.17,0,0,0,30.17,75.78h2.23L30,78.19l2.88,2.88,7.33-7.34-7.33-7.33Z" transform="translate(-2.58 -2.58)"/><path class="cls-2" d="M78.13,64.4l-6.27,5.81L63.42,62,45.9,85.82H94.81ZM63.93,68.22l9.71,9.39,2.83-2.93L74.8,73l2.85-2.64,8.83,11.34H54Z" transform="translate(-2.58 -2.58)"/><circle class="cls-2" cx="82.59" cy="58.61" r="2.59"/><polygon class="cls-2" points="14.63 35.44 53.46 35.44 53.46 44.3 57.54 44.3 57.54 31.36 10.56 31.36 10.56 59.48 18.37 59.48 18.37 55.41 14.63 55.41 14.63 35.44"/><rect class="cls-2" x="26.12" y="55.41" width="11.89" height="4.08"/><polygon class="cls-2" points="33.37 18.03 59.07 18.03 59.07 28.13 63.14 28.13 63.14 13.96 29.29 13.96 29.29 28.13 33.37 28.13 33.37 18.03"/><polygon class="cls-2" points="62.63 44.3 66.71 44.3 66.71 35.45 81.47 35.52 81.5 31.44 62.63 31.35 62.63 44.3"/><polygon class="cls-2" points="88.18 31.36 88.18 35.44 97.45 35.44 97.45 57.44 101.53 57.44 101.53 31.36 88.18 31.36"/><path class="cls-2" d="M44.85,85.82H95.72V51.2H44.85V85.82Zm4.08-30.55H91.64V81.75H48.93V55.28Z" transform="translate(-2.58 -2.58)"/><text class="cls-3" transform="translate(36.87 102.21)">Slider</text></svg>