<svg id="Layer_16" data-name="Layer 16" xmlns="http://www.w3.org/2000/svg" viewBox="0 0 114.08 115.44"><defs><style>.cls-1{fill:#fff;stroke:#567fef;stroke-miterlimit:10;stroke-width:2px;}.cls-2{font-size:14px;font-family:Helvetica Neue;font-weight:700;}.cls-2,.cls-3{fill:#567fef;}.cls-4{fill:#c1c1c1;}</style></defs><title>acordeon</title><rect class="cls-1" x="1" y="1" width="112.08" height="112.08" rx="9.35" ry="9.35"/><text x="-1.58" y="-1.58"/><g id="Label"><text class="cls-2" transform="translate(24.63 108.71)">Aco<tspan x="26.18" y="0">r</tspan><tspan x="31.37" y="0">deón</tspan></text></g><g id="Layer_18" data-name="Layer 18"><path class="cls-3" d="M110.2,29.58a1.75,1.75,0,0,1-1.75,1.75H10a1.75,1.75,0,0,1-1.75-1.75V18.75A1.75,1.75,0,0,1,10,17h98.44a1.75,1.75,0,0,1,1.75,1.75V29.58Z" transform="translate(-1.58 -1.58)"/><path class="cls-3" d="M108.46,18a1.47,1.47,0,0,1,.74,1.53V58a1.47,1.47,0,0,1-.74,1.53H10A1.47,1.47,0,0,1,9.26,58V19.53A1.47,1.47,0,0,1,10,18h98.46m0-1H10c-1,0-1.74,1.13-1.74,2.53V58c0,1.4.78,2.53,1.74,2.53h98.46c1,0,1.74-1.13,1.74-2.53V19.53c0-1.4-.78-2.53-1.74-2.53h0Z" transform="translate(-1.58 -1.58)"/><rect class="cls-3" x="6.68" y="74.22" width="102.05" height="12.58" rx="1.64" ry="1.64"/><rect class="cls-3" x="6.68" y="60.36" width="102.05" height="12.58" rx="1.35" ry="1.35"/><rect class="cls-4" x="10.2" y="36.51" width="94.33" height="2.49"/><rect class="cls-4" x="10.2" y="40.9" width="94.33" height="2.49"/><rect class="cls-4" x="10.2" y="45.03" width="94.33" height="2.49"/><rect class="cls-4" x="72.97" y="49.16" width="31.57" height="2.49"/></g></svg>