<svg id="Actividad" xmlns="http://www.w3.org/2000/svg" viewBox="0 0 112.08 113.82"><defs><style>.cls-1{fill:#f34f16;}.cls-2{font-size:14px;font-family:Helvetica Neue;font-weight:700;}.cls-2,.cls-3{fill:#fff;}</style></defs><title>select</title><rect class="cls-1" width="112.08" height="112.08" rx="9.35" ry="9.35"/><text x="-2.58" y="-2.58"/><text class="cls-2" transform="translate(24.94 102.21)">Actividad</text><path class="cls-3" d="M50.51,46.89a5,5,0,0,0-.47.47,5.83,5.83,0,0,1,0-.65V42.59a0.65,0.65,0,0,0-.65-0.65H47a0.65,0.65,0,0,0-.65.65V53.14c0,0.9,0,1.82-.05,2.51a0.61,0.61,0,0,0,.62.65h1.78a0.74,0.74,0,0,0,.72-0.64A5,5,0,0,1,49.54,55a5.7,5.7,0,0,0,.41.52,3.26,3.26,0,0,0,2.44,1c2.3,0,4.57-1.8,4.57-5.4,0-3.05-1.7-5-4.07-5A3.7,3.7,0,0,0,50.51,46.89Zm1,6.77a1.51,1.51,0,0,1-1.43-1.19A3.56,3.56,0,0,1,50,52V50.63a3.79,3.79,0,0,1,0-.49,1.47,1.47,0,0,1,1.43-1.23c1.21,0,1.76,1,1.76,2.36C53.25,52.85,52.57,53.66,51.49,53.66Zm-13.78,4.1a5.94,5.94,0,1,0-5.94-5.94A5.94,5.94,0,0,0,37.71,57.76Zm0-10.16a4.23,4.23,0,1,1-4.23,4.23A4.23,4.23,0,0,1,37.71,47.6ZM64.89,40l1.68,4.14L68.92,50l2.32-5.16L81.5,55.05l3.42-3.42L74.67,41.37l3-1.33,2.21-1-9.55-3.87-0.2-.08-8.6-3.49,1.45,3.57Zm39.21,34.35-9.38-4.14a11.56,11.56,0,0,0-3.92-.83H26.46a11.58,11.58,0,0,0-3.93.83l-9.38,4.14a3.41,3.41,0,0,0-1.87,2.88v4.25a2,2,0,0,0,2,2h90.59a2,2,0,0,0,2-2V77.23A3.41,3.41,0,0,0,104.09,74.35Zm-27.82,6H41a1.08,1.08,0,1,1,0-2.16h35.3A1.08,1.08,0,0,1,76.27,80.4ZM37.71,38.73a5.94,5.94,0,1,0-5.94-5.94A5.94,5.94,0,0,0,37.71,38.73Zm0-10.16a4.23,4.23,0,1,1-4.23,4.23A4.23,4.23,0,0,1,37.71,28.56Zm-11.34,39h64.5A7.18,7.18,0,0,0,98,60.35V24.47a7.18,7.18,0,0,0-7.17-7.17H26.37a7.18,7.18,0,0,0-7.17,7.17V60.35A7.18,7.18,0,0,0,26.37,67.52Zm-1-43.06a1,1,0,0,1,1-1h64.5a1,1,0,0,1,1,1V60.35a1,1,0,0,1-1,1H26.37a1,1,0,0,1-1-1V24.47Zm24,13.62a3.83,3.83,0,0,0,2.29-.66c0.29-.21.49-0.43,0.51-0.43a1.87,1.87,0,0,1,.13.43,0.76,0.76,0,0,0,.75.44h2a0.55,0.55,0,0,0,.55-0.64c0-.5-0.06-1.13-0.06-1.78V32.08c0-2.49-1.19-4.39-4.61-4.39a9.7,9.7,0,0,0-3.53.63,0.76,0.76,0,0,0-.42.89l0.3,1.07a0.53,0.53,0,0,0,.76.34,6.09,6.09,0,0,1,2.23-.46c1.31,0,1.62.44,1.62,0.85v0a3.18,3.18,0,0,1-.65.06c-3,.16-5.11,1.35-5.11,3.84A3.12,3.12,0,0,0,49.33,38.09Zm2-4.74a0.53,0.53,0,0,1,.65.37v0.41a2.17,2.17,0,0,1,0,.53,1.34,1.34,0,0,1-1.25.91,0.91,0.91,0,0,1-1-1C49.61,33.88,50.21,33.46,51.29,33.35ZM37.71,35.48A2.69,2.69,0,1,0,35,32.79,2.69,2.69,0,0,0,37.71,35.48Z" transform="translate(-2.58 -2.58)"/></svg>