<svg id="Layer_16" data-name="Layer 16" xmlns="http://www.w3.org/2000/svg" viewBox="0 0 114.08 115.44"><defs><style>.cls-1{fill:#fcfcfc;}.cls-1,.cls-2{stroke:#016f6e;stroke-miterlimit:10;stroke-width:2px;}.cls-2{fill:none;}.cls-3,.cls-4{fill:#016f6e;}.cls-4{font-size:14px;font-family:Helvetica Neue;font-weight:700;}</style></defs><title>slider</title><rect class="cls-1" x="1" y="1" width="112.08" height="112.08" rx="9.35" ry="9.35"/><text x="-1.58" y="-1.58"/><g id="Layer_15" data-name="Layer 15"><path class="cls-2" d="M86.81,29H30.44a7.62,7.62,0,0,0-7.53,7.69v31.8a7.62,7.62,0,0,0,7.53,7.69H86.81a7.62,7.62,0,0,0,7.53-7.69V36.68A7.62,7.62,0,0,0,86.81,29Z" transform="translate(-1.58 -1.58)"/><path class="cls-3" d="M47.65,20.12H65.58l-3.39,3.32a1.71,1.71,0,0,0,0,2.38,1.62,1.62,0,0,0,2.33,0l6.23-6.1a1.86,1.86,0,0,0,0-2.65L64.47,11a1.62,1.62,0,0,0-2.33,0,1.71,1.71,0,0,0,0,2.38l3.39,3.32H47.65A1.68,1.68,0,0,0,47.65,20.12Z" transform="translate(-1.58 -1.58)"/><path class="cls-3" d="M69.6,85H51.67l3.39-3.32a1.7,1.7,0,0,0,0-2.38,1.62,1.62,0,0,0-2.33,0L46.55,85.4a1.86,1.86,0,0,0,0,2.65l6.23,6.1a1.62,1.62,0,0,0,2.33,0,1.7,1.7,0,0,0,0-2.38l-3.39-3.32H69.6A1.68,1.68,0,0,0,69.6,85Z" transform="translate(-1.58 -1.58)"/></g><g id="Label"><text class="cls-4" transform="translate(8.57 108.71)">Carta giratoria</text></g></svg>