<svg id="Layer_16" data-name="Layer 16" xmlns="http://www.w3.org/2000/svg" viewBox="0 0 114.08 115.44"><defs><style>.cls-1{fill:#fcfcfc;stroke:#e7aa13;stroke-miterlimit:10;stroke-width:2px;}.cls-2{fill:#fff;}.cls-3,.cls-5,.cls-6{fill:#e7aa13;}.cls-4{fill:#fefdfc;}.cls-5{font-size:42.13px;}.cls-5,.cls-6{font-family:Helvetica Neue;font-weight:700;}.cls-6{font-size:14px;}</style></defs><title>code</title><rect class="cls-1" x="1" y="1" width="112.08" height="112.08" rx="9.35" ry="9.35"/><text x="-1.58" y="-1.58"/><g id="Code"><rect class="cls-2" x="14.27" y="16.22" width="86.67" height="86.67"/><path class="cls-3" d="M58.39,12.89H99c3.72,0,5.09,1.29,5.1,5.06q0,35.52,0,71c0,3.76-1.51,5.17-5.34,5.17H17.81c-3.89,0-5.22-1.34-5.22-5.19q0-35.52,0-71c0-3.87,1.17-5,5-5h40.8ZM58.18,27.13c-11.85,0-23.7,0-35.54,0-1.58,0-2.27.24-2.26,2.08q0.1,27.51,0,55c0,1.53.47,1.9,1.94,1.9q35.89-.06,71.77,0c1.65,0,2-.51,2-2.06q-0.08-27.4,0-54.79c0-1.69-.4-2.18-2.13-2.17C82,27.17,70.1,27.13,58.18,27.13ZM38.4,17.85a2.6,2.6,0,0,0-2.77,2.56,2.64,2.64,0,0,0,2.73,2.74,2.52,2.52,0,0,0,2.53-2.68A2.53,2.53,0,0,0,38.4,17.85Zm-15.87,0a2.65,2.65,0,0,0,0,5.3,2.69,2.69,0,0,0,2.75-2.73A2.65,2.65,0,0,0,22.53,17.84Zm8,0a2.69,2.69,0,0,0-2.76,2.56,2.72,2.72,0,0,0,2.75,2.74A2.65,2.65,0,0,0,30.52,17.84Z" transform="translate(-1.58 -1.58)"/><path class="cls-4" d="M38.4,17.85a2.53,2.53,0,0,1,2.49,2.62,2.52,2.52,0,0,1-2.53,2.68,2.64,2.64,0,0,1-2.73-2.74A2.6,2.6,0,0,1,38.4,17.85Z" transform="translate(-1.58 -1.58)"/><path class="cls-4" d="M22.53,17.84a2.65,2.65,0,0,1,2.72,2.57,2.69,2.69,0,0,1-2.75,2.73A2.65,2.65,0,0,1,22.53,17.84Z" transform="translate(-1.58 -1.58)"/><path class="cls-4" d="M30.52,17.84a2.65,2.65,0,0,1,0,5.3,2.72,2.72,0,0,1-2.75-2.74A2.69,2.69,0,0,1,30.52,17.84Z" transform="translate(-1.58 -1.58)"/><g id="Layer_10" data-name="Layer 10"><text class="cls-5" transform="translate(24.44 66.18)">&lt;/&gt;</text></g></g><g id="Label"><text class="cls-6" transform="translate(32.94 108.71)">Código</text></g></svg>