<svg id="Comentario" xmlns="http://www.w3.org/2000/svg" viewBox="0 0 112.08 113.82"><defs><style>.cls-1{fill:#da3e6d;}.cls-2{font-size:14px;font-family:Helvetica Neue;font-weight:700;}.cls-2,.cls-3,.cls-4{fill:#fff;}.cls-4{fill-rule:evenodd;}</style></defs><title>forum</title><rect class="cls-1" width="112.08" height="112.08" rx="9.35" ry="9.35"/><text x="-2.58" y="-2.58"/><text class="cls-2" transform="translate(16.78 102.21)">Comentario</text><path class="cls-3" d="M35.49,77.88a1.93,1.93,0,0,1-2.17-1.44c-0.35-1.59,1.35-2.37,2.71-3A4.77,4.77,0,0,0,39,70.58a6.83,6.83,0,0,0,.2-1,36.78,36.78,0,0,1-17.61-8.14c-5-4.45-7.81-10.11-7.81-15.94,0-6.73,3.56-13,10-17.72,6.3-4.58,14.66-7.1,23.52-7.1s17.22,2.52,23.52,7.1c6.46,4.69,10,11,10,17.72,0,6.13-3,12-8.53,16.55a38.08,38.08,0,0,1-19.8,8A22.3,22.3,0,0,1,48,74.09c-3.88,2.53-9.76,3.47-10.3,3.55A14.8,14.8,0,0,1,35.49,77.88ZM47.31,24C30.62,24,17,33.61,17,45.48c0,10.1,10.08,19,24,21.06l1.13,0.17,0.23,1.12a7.74,7.74,0,0,1-.23,3.62,6.68,6.68,0,0,1-.94,2,19.49,19.49,0,0,0,5-2.14,20.15,20.15,0,0,0,4.24-4l0.43-.52,0.67-.07c14.84-1.48,26-10.65,26-21.32C77.57,33.61,64,24,47.31,24Z" transform="translate(-2.58 -2.58)"/><path class="cls-4" d="M103.49,48.74c0-12.8-14.28-23.17-31.9-23.17h-0.3L72,26.11c7,5.09,10.87,12,10.87,19.38,0,6.76-3.29,13.2-9.27,18.14a37.57,37.57,0,0,1-13.17,6.84A41.72,41.72,0,0,0,67.2,71.7,22,22,0,0,0,71.8,76c3.72,2.43,9.67,3.31,9.67,3.31s5.12,1,.71-1.08a6.31,6.31,0,0,1-3.84-3.92,6.07,6.07,0,0,1-.21-2.85C92.61,69.24,103.49,59.91,103.49,48.74Z" transform="translate(-2.58 -2.58)"/></svg>