<svg id="Layer_2" data-name="Layer 2" xmlns="http://www.w3.org/2000/svg" viewBox="0 0 833.16 750.83"><defs><style>.cls-1{fill:#fff;}.cls-2{fill:#dfeffa;}.cls-3{fill:none;stroke:#000;stroke-miterlimit:10;}.cls-4{fill:#e28810;}</style></defs><title>edita</title><rect class="cls-1" x="7.13" y="82.59" width="712.57" height="657.3"/><path class="cls-2" d="M820.54,231.72V189.53c0-13.4-8.37-23-24.23-23H125.91c-15.86,0-35.91,9.64-35.91,23v42.19H820.54Z" transform="translate(-90 -158.17)"/><path d="M788.13,909H125.56a35,35,0,0,1-35-35V193.13a35,35,0,0,1,35-35H788.13a35,35,0,0,1,35,35V345.3a6.52,6.52,0,1,1-13,0V193.13a21.93,21.93,0,0,0-21.91-21.91H125.56a21.94,21.94,0,0,0-21.91,21.91V874A21.93,21.93,0,0,0,125.56,896H788.13A21.93,21.93,0,0,0,810,874v-109a6.52,6.52,0,1,1,13,0V874A35,35,0,0,1,788.13,909Z" transform="translate(-90 -158.17)"/><circle cx="54.26" cy="43.28" r="13.05"/><circle cx="94.69" cy="43.28" r="13.05"/><circle cx="135.13" cy="43.28" r="13.05"/><rect x="7.13" y="69.55" width="719.43" height="13.05"/><path d="M288.9,298.27H161.35a6.52,6.52,0,0,1,0-13H288.9A6.52,6.52,0,0,1,288.9,298.27Z" transform="translate(-90 -158.17)"/><path class="cls-3" d="M304.21,516.64H204.62A5.52,5.52,0,0,1,200,508l20.32-30.17a5.53,5.53,0,0,1,8.68-.63l16.83,18.55a5.52,5.52,0,0,0,9-1.13l23.23-44a5.53,5.53,0,0,1,10.07.68l21.24,57.88a5.52,5.52,0,0,1-5.18,7.42h0Zm15.26-102.85H180.19a18.83,18.83,0,0,0-18.84,18.82v97a18.83,18.83,0,0,0,18.84,18.82H319.47a18.83,18.83,0,0,0,18.84-18.82v-97a18.83,18.83,0,0,0-18.84-18.82h0Z" transform="translate(-90 -158.17)"/><path d="M482,420.31H396a6.52,6.52,0,0,1,0-13H482A6.52,6.52,0,0,1,482,420.31Z" transform="translate(-90 -158.17)"/><path d="M482,454H396a6.52,6.52,0,0,1,0-13H482A6.52,6.52,0,0,1,482,454Z" transform="translate(-90 -158.17)"/><path d="M482,487.62H396a6.52,6.52,0,0,1,0-13H482A6.52,6.52,0,0,1,482,487.62Z" transform="translate(-90 -158.17)"/><path d="M482,554.91H396a6.52,6.52,0,0,1,0-13H482A6.52,6.52,0,0,1,482,554.91Z" transform="translate(-90 -158.17)"/><path d="M482,521.26H396a6.52,6.52,0,0,1,0-13H482A6.52,6.52,0,0,1,482,521.26Z" transform="translate(-90 -158.17)"/><path d="M455.63,623.4h-360c-2.77,0-5-2.92-5-6.52V345.3c0-3.6,2.25-6.52,5-6.52H534.7c2.75,0,5.14,2.76,5.22,6.33s-2.19,6.72-5,6.72H100.64V610.36H455.4c2.76,0,5.18,2.77,5.25,6.36S458.44,623.4,455.63,623.4Z" transform="translate(-90 -158.17)"/><path d="M482,695.3H161.35a6.52,6.52,0,0,1,0-13H482A6.52,6.52,0,0,1,482,695.3Z" transform="translate(-90 -158.17)"/><path d="M482,729H161.35a6.52,6.52,0,0,1,0-13H482A6.52,6.52,0,0,1,482,729Z" transform="translate(-90 -158.17)"/><path d="M482,762.6H161.35a6.52,6.52,0,0,1,0-13H482A6.52,6.52,0,0,1,482,762.6Z" transform="translate(-90 -158.17)"/><path d="M482,829.91H161.35a6.52,6.52,0,0,1,0-13H482A6.52,6.52,0,0,1,482,829.91Z" transform="translate(-90 -158.17)"/><path d="M482,796.25H161.35a6.52,6.52,0,0,1,0-13H482A6.52,6.52,0,0,1,482,796.25Z" transform="translate(-90 -158.17)"/><g id="xhldKs.tif"><path class="cls-4" d="M749.87,383.16l15.32-19.38c2.41-3,5-6,7.21-9.15,2-2.8,4.56-2.67,7-1.51,9.41,4.44,18.88,8.73,28.49,12.73,2.37,1,4.75,2,7,3.21a5.81,5.81,0,0,1,2.83,6.18c-1.71,12.78-3,25.64-5.54,38.28-1.47,7.46,3.66,10,7.61,13.7,0.55,0.52,1.5.71,1.91,1.3,3.48,5,7.88,3.75,12.5,2.11,11.86-4.2,23.74-8.38,35.68-12.34a4.42,4.42,0,0,1,5.36,1.8c5.15,7.44,10.11,15,15.08,22.55,2.58,3.92,5.52,7.6,7.74,11.77a5.18,5.18,0,0,1-.86,6.12c-8.11,9.67-16.05,19.5-24.69,28.69-4.09,4.35-4.66,8.27-2.24,13.22a4.21,4.21,0,0,1,.64,1.52c0.19,7.54,5.09,9.92,11.55,11.31,11.53,2.49,23,5.45,34.43,8.16,3.41,0.8,4.83,2.87,4.93,6.32,0.38,12.79,1,25.57,1.31,38.35,0.07,2.44-.68,4.56-3.52,5.66-8.19,3.13-16.66,5.31-25.06,7.69-5,1.42-9.81,3.49-15,4.54-2.64.54-4.42,2.84-5.05,5.82a28.13,28.13,0,0,1-1.29,5.06c-0.81,2-1,4.21-1.47,6.33a5.86,5.86,0,0,0,1.72,5.66c6.87,7.3,13.62,14.73,20.64,21.88,2.83,2.88,5.67,5.76,8.36,8.77,1.63,1.82,2.26,3.72.81,6.14-4.91,8.16-9.67,16.42-14.49,24.63-1.59,2.71-3.28,5.36-4.76,8.12-1.83,3.41-3.91,4.65-7.48,3.68-7.63-2.06-15.22-4.28-22.82-6.46-5.39-1.54-10.75-3.18-16.16-4.65a7.47,7.47,0,0,0-7,2c-3.49,3.13-6.68,6.59-9.94,10a6.54,6.54,0,0,0-1.68,6.3c2.65,12.95,5.21,25.91,7.77,38.88,0.91,4.6-.31,6.41-4.41,8.42-6.19,3-12.2,6.39-18.31,9.59-4.92,2.58-9.75,5.35-14.82,7.57-2.92,1.28-5.21-.83-7.09-3-4.58-5.24-9.13-10.52-13.72-15.75-4.09-4.66-8.24-9.27-12.34-13.92a6,6,0,0,0-5.84-1.87c-5.49.89-10.8,2.66-16.39,3.19-3.06.29-4.58,2.82-5.63,5.34-3.24,7.81-6.3,15.7-9.44,23.55-1.67,4.19-3.41,8.35-5,12.56-1.68,4.43-3.49,5.88-8.17,5.2-11.46-1.68-23.05-2.07-34.53-3.53-3.24-.41-5.14-2.28-5.44-5.49-1-11.12-3.29-22-5-33.07a30.91,30.91,0,0,1-.47-5.19c0.07-3.41-2.09-5.42-4.68-6.58-5.6-2.52-11.41-4.6-17.13-6.85a8.62,8.62,0,0,0-8.16,1c-6.22,4.24-12.17,8.88-18.29,13.27-5.11,3.66-10.3,7.2-15.46,10.8a4.84,4.84,0,0,1-5.89-.35c-9.84-7.33-19.86-14.45-28.78-22.95-1.83-1.74-1.5-5.18.29-8.86,3.19-6.56,6.21-13.22,9.25-19.85,1.83-4,3.24-8.23,5.46-12,2.88-4.87,1.21-8.67-1.68-12.59-3.31-4.49-6.71-8.94-9.67-13.67a6.5,6.5,0,0,0-6.22-3.28c-13.69.49-27.37,1.19-41.06,1.72a6.44,6.44,0,0,1-6.34-5.11c-1.85-7.92-4.7-15.53-7.34-23.2-1-3-1.54-6.16-2.73-9.16s0.71-5.44,3.11-6.85c7.73-4.54,15.06-9.66,22.52-14.6,3.71-2.46,7.44-4.88,11.26-7.17,2.41-1.44,2.84-3.76,2.85-6.1,0-6.74-.15-13.49-0.26-20.23-0.07-4-2.46-6.48-5.79-8.27-11.05-5.93-21.84-12.32-32.59-18.79-3.3-2-3.93-4.28-2.38-9,2.61-8,4.63-16.2,6.88-24.33a72.37,72.37,0,0,1,2.07-7.5c1.64-4.1,5.61-3.87,9.26-3.84l36.48,0.25a8,8,0,0,0,7.16-4.08c3.45-5.88,7.63-11.31,10.71-17.42a5.39,5.39,0,0,0,.3-5c-5-10-10.09-19.89-15.19-29.82-1.59-3.1-3.36-6.1-4.9-9.22-1.12-2.26,1-3.53,2.14-4.64,5-4.84,10.21-9.53,15.49-14.09,4.2-3.62,8.58-7,13-10.42,2-1.52,4.13-1.07,6.14.19,6.87,4.33,13.77,8.62,20.61,13,5,3.19,9.83,6.57,15,9.51a5.92,5.92,0,0,0,5.3.44c5.37-2.21,10.58-4.8,15.88-7.16,3.24-1.45,4.54-4,4.88-7.4q1.94-19.57,4-39.13a4.91,4.91,0,0,1,4.55-4.75l31.12-4.71q1-.15,1.93-0.36c6.94-1.51,9.65-.13,12,6.58,1.56,4.44,3.86,8.52,5.81,12.76,3.16,6.87,6.15,13.81,9.57,20.57,1.55,3.07,3.42,4.46,6.62,4.85,3.43,0.42,6.8,1.23,10.23,1.64C744.73,389.83,745.65,389.36,749.87,383.16ZM602.81,490.06c-1.51,3.81-3.78,7.21-5.7,10.81a109.44,109.44,0,0,0-11.13,34,123.22,123.22,0,0,0,.7,45,130.54,130.54,0,0,0,10.75,31.51,116.29,116.29,0,0,0,9,15.14,131.33,131.33,0,0,0,17.25,20,123.38,123.38,0,0,0,16.59,13.16,110.79,110.79,0,0,0,22.83,11.93,127.51,127.51,0,0,0,27,7.08,125.83,125.83,0,0,0,30.43,1.06c6.41-.64,12.64-2.34,18.94-3.61,9.11-1.84,17.52-5.42,25.72-9.41a114.64,114.64,0,0,0,15.62-9.54,124.08,124.08,0,0,0,22.2-20,129.05,129.05,0,0,0,16.2-23.86,117.38,117.38,0,0,0,12.1-34.16c3-16,3.46-32.1-.26-48.21-1.77-7.66-3.63-15.28-6.63-22.49a133,133,0,0,0-9.93-19.17,124,124,0,0,0-20.52-24.9,126.47,126.47,0,0,0-23.61-17.26,121.93,121.93,0,0,0-38.46-14.09,116.92,116.92,0,0,0-37.28-1.3c-14.63,1.93-28.74,5.72-41.88,12.67a136,136,0,0,0-19.58,12.42c-3.43,2.64-6.72,5.46-9.92,8.32a93.75,93.75,0,0,0-11.07,11.89C608.86,481.23,605.41,485.35,602.81,490.06Z" transform="translate(-90 -158.17)"/></g></svg>