<svg id="Flipbook" xmlns="http://www.w3.org/2000/svg" viewBox="0 0 112.08 113.82"><defs><style>.cls-1{fill:#5c0a5e;}.cls-2{font-size:14px;font-family:Helvetica Neue;font-weight:700;}.cls-2,.cls-3{fill:#fff;}.cls-4{fill:#680969;stroke:#fff;stroke-miterlimit:10;}</style></defs><title>flipbook</title><rect class="cls-1" width="112.08" height="112.08" rx="9.35" ry="9.35"/><text x="-2.58" y="-2.58"/><text class="cls-2" transform="translate(27.15 102.21)">Flipbook</text><path class="cls-3" d="M77.73,26.71s5.47-2.65,12.53,1.86a2.51,2.51,0,0,1,.65.61c0.38,0.5,1,1.37,1.12,1.54,1.38,2.32,10.09,15,12.75,18.92a4.3,4.3,0,0,1,.75,2.4l0,2.83a4.27,4.27,0,0,1-2.77,4L62.42,74.06a3.4,3.4,0,0,1-4.59-2.92h0" transform="translate(-2.58 -2.58)"/><path class="cls-1" d="M85.24,30.08a1,1,0,0,1,.89.56c1.37,2.8,7.93,15,9.93,18.71a3,3,0,0,1,.23,2.26l-0.22.73a2.92,2.92,0,0,1-2.34,2.06c-4.06.65-14.17,2.88-22.26,9.54-0.31.25,4.88-8.59,20.3-11.69,0.94,0.37,3-.46-2.18-8.67L83.17,31.63c-0.42-.66-2.25-2.56-1.47-2.57C82.14,29.06,84.89,30.08,85.24,30.08Z" transform="translate(-2.58 -2.58)"/><path class="cls-3" d="M39.34,26.69s-5.48-2.61-12.51,1.94a2.51,2.51,0,0,0-.65.62c-0.37.5-1,1.37-1.11,1.54-1.37,2.33-10,15.09-12.63,19a5.35,5.35,0,0,0-.74,2.72V55a4.27,4.27,0,0,0,2.79,4L55,73.93a3.4,3.4,0,0,0,4.57-3h0" transform="translate(-2.58 -2.58)"/><path class="cls-1" d="M31.85,30.1a1,1,0,0,0-.89.56c-1.35,2.81-7.83,15-9.81,18.78a3,3,0,0,0-.22,2.26l0.22,0.73a2.92,2.92,0,0,0,2.36,2c4.06,0.63,14.19,2.79,22.32,9.4,0.31,0.25-4.94-8.56-20.37-11.56-0.94.38-3-.44,2.13-8.69l6.36-12c0.42-.66,1.7-2.55.92-2.56C34.41,29.08,32.2,30.1,31.85,30.1Z" transform="translate(-2.58 -2.58)"/><path class="cls-4" d="M58.16,37L57.84,71.14a1,1,0,0,0,1.83.57c3.91-5.92,13.87-18.46,29-20.09a2,2,0,0,0,1.51-3L77,25.4s-11-1.05-17.72,8.22A5.92,5.92,0,0,0,58.16,37Z" transform="translate(-2.58 -2.58)"/><path class="cls-4" d="M59,36.89L59.52,71a1,1,0,0,1-1.83.58c-3.95-5.89-14-18.37-29.14-19.9a2,2,0,0,1-1.53-3L40.08,25.38s11-1.12,17.78,8.1A5.92,5.92,0,0,1,59,36.89Z" transform="translate(-2.58 -2.58)"/></svg>