<svg id="Layer_16" data-name="Layer 16" xmlns="http://www.w3.org/2000/svg" viewBox="0 0 114.08 115.44"><defs><style>.cls-1,.cls-4,.cls-5{fill:#fff;}.cls-1{stroke:#5c0a5e;stroke-width:2px;}.cls-1,.cls-2,.cls-5{stroke-miterlimit:10;}.cls-2{fill:none;}.cls-2,.cls-5{stroke:#680969;}.cls-3,.cls-6{fill:#5c0a5e;}.cls-6{font-size:14px;font-family:Helvetica Neue;font-weight:700;}</style></defs><title>flipbook</title><rect class="cls-1" x="1" y="1" width="112.08" height="112.08" rx="9.35" ry="9.35"/><text x="-1.58" y="-1.58"/><g id="Book"><g id="Layer_8" data-name="Layer 8"><path class="cls-2" d="M58.81,83.94" transform="translate(-1.58 -1.58)"/><path class="cls-3" d="M76.71,38.71s5.47-2.65,12.53,1.86a2.51,2.51,0,0,1,.65.61c0.38,0.5,1,1.37,1.12,1.54,1.38,2.32,10.09,15,12.75,18.92a4.3,4.3,0,0,1,.75,2.4l0,2.83a4.27,4.27,0,0,1-2.77,4L61.4,86.06a3.4,3.4,0,0,1-4.59-2.92h0" transform="translate(-1.58 -1.58)"/><path class="cls-4" d="M84.23,42.08a1,1,0,0,1,.89.56c1.37,2.8,7.93,15,9.93,18.71a3,3,0,0,1,.23,2.26l-0.22.73a2.92,2.92,0,0,1-2.34,2.06c-4.06.65-14.17,2.88-22.26,9.54-0.31.25,4.88-8.59,20.3-11.69,0.94,0.37,3-.46-2.18-8.67L82.15,43.63c-0.42-.66-2.25-2.56-1.47-2.57C81.13,41.06,83.88,42.08,84.23,42.08Z" transform="translate(-1.58 -1.58)"/><path class="cls-2" d="M77.61,41.08" transform="translate(-1.58 -1.58)"/><path class="cls-2" d="M58.37,83.94" transform="translate(-1.58 -1.58)"/><path class="cls-3" d="M38.32,38.69s-5.48-2.61-12.51,1.94a2.51,2.51,0,0,0-.65.62c-0.37.5-1,1.37-1.11,1.54-1.37,2.33-10,15.09-12.63,19a5.35,5.35,0,0,0-.74,2.72V67a4.27,4.27,0,0,0,2.79,4L53.93,85.93a3.4,3.4,0,0,0,4.57-3h0" transform="translate(-1.58 -1.58)"/><path class="cls-4" d="M30.83,42.1a1,1,0,0,0-.89.56c-1.35,2.81-7.83,15-9.81,18.78a3,3,0,0,0-.22,2.26l0.22,0.73a2.92,2.92,0,0,0,2.36,2c4.06,0.63,14.19,2.79,22.32,9.4,0.31,0.25-4.94-8.56-20.37-11.56-0.94.38-3-.44,2.13-8.69l6.36-12c0.42-.66,1.7-2.55.92-2.56C33.39,41.08,31.18,42.1,30.83,42.1Z" transform="translate(-1.58 -1.58)"/><path class="cls-2" d="M37.43,41.06" transform="translate(-1.58 -1.58)"/></g><path class="cls-5" d="M57.14,49L56.82,83.14a1,1,0,0,0,1.83.57c3.91-5.92,13.87-18.46,29-20.09a2,2,0,0,0,1.51-3L76,37.4s-11-1.05-17.72,8.22A5.92,5.92,0,0,0,57.14,49Z" transform="translate(-1.58 -1.58)"/><path class="cls-5" d="M58,48.89L58.5,83a1,1,0,0,1-1.83.58c-3.95-5.89-14-18.37-29.14-19.9a2,2,0,0,1-1.53-3L39.06,37.38s11-1.12,17.78,8.1A5.92,5.92,0,0,1,58,48.89Z" transform="translate(-1.58 -1.58)"/></g><g id="Label"><text class="cls-6" transform="translate(24.63 108.71)">Aco<tspan x="26.18" y="0">r</tspan><tspan x="31.37" y="0">deón</tspan></text></g></svg>