<svg id="Layer_16" data-name="Layer 16" xmlns="http://www.w3.org/2000/svg" viewBox="0 0 114.08 115.44"><defs><style>.cls-1{fill:none;stroke:#da4472;stroke-miterlimit:10;stroke-width:2px;}.cls-2{fill:#fefdfe;}.cls-3,.cls-5{fill:#da406e;}.cls-4{fill:#da4472;}.cls-5{font-size:14px;font-family:Helvetica Neue;font-weight:700;}</style></defs><title>forum</title><rect class="cls-1" x="1" y="1" width="112.08" height="112.08" rx="9.35" ry="9.35"/><text x="-1.58" y="-1.58"/><g id="Forum"><path class="cls-2" d="M59.12,110.66c-16.6,0-33.2,0-49.81,0-1.48,0-1.78-.3-1.78-1.78q0.08-49.81,0-99.61c0-1.48.3-1.78,1.78-1.78q49.81,0.08,99.61,0c1.48,0,1.78.3,1.78,1.78q-0.08,49.81,0,99.61c0,1.48-.3,1.78-1.78,1.78C92.32,110.64,75.72,110.66,59.12,110.66Zm28.13-19.2c-0.89-.5-1.78-1-2.68-1.49a6.58,6.58,0,0,1-3.47-4.29c-0.42-1.67-.3-2.62,1.84-3a36.41,36.41,0,0,0,18.7-9c6-5.62,8.92-12.42,7-20.72a21.88,21.88,0,0,0-7.48-11.68C93.3,34.55,84,32,73.34,31.83c1.74,1.49,3.05,2.58,4.32,3.72A24.27,24.27,0,0,1,81,68.82c-4.35,5.8-10.22,9.49-16.9,12a5.07,5.07,0,0,0-2.45,1.24,17,17,0,0,0,1.95.41c3.41,0.26,6,1.78,8.54,4.18C76.23,90.55,81.6,91.55,87.25,91.46ZM84,55.4c0-8.21-2.93-13.79-7.84-18.36C61.38,23.26,33.84,22.71,18.35,35.8,6.42,45.89,6,61.14,17.47,71.56a39.06,39.06,0,0,0,17.95,9c2.22,0.51,2.43,1.37.86,3.08-1,1.14-2.55,1.49-3.79,2.28-1,.66-1.91,1.45-1.48,2.81a2.33,2.33,0,0,0,2.79,1.54c6.57-.83,12.83-2.45,17.55-7.56A4.29,4.29,0,0,1,54,81.27a42.11,42.11,0,0,0,17.28-6.34C78.76,70,83.82,63.48,84,55.4Z" transform="translate(-1.58 -1.58)"/><path class="cls-3" d="M87.25,91.46c-5.65.09-11-.91-15.1-4.77-2.54-2.4-5.13-3.92-8.54-4.18a17,17,0,0,1-1.95-.41,5.07,5.07,0,0,1,2.45-1.24c6.67-2.56,12.55-6.24,16.9-12a24.27,24.27,0,0,0-3.35-33.28c-1.27-1.14-2.58-2.22-4.32-3.72C84,32,93.3,34.55,101.15,41.29A21.88,21.88,0,0,1,108.64,53c1.93,8.3-1,15.1-7,20.72a36.41,36.41,0,0,1-18.7,9c-2.14.4-2.27,1.35-1.84,3A6.58,6.58,0,0,0,84.57,90C85.47,90.46,86.36,91,87.25,91.46Z" transform="translate(-1.58 -1.58)"/><path class="cls-4" d="M84,55.4C83.82,63.48,78.76,70,71.33,74.93A42.11,42.11,0,0,1,54,81.27a4.29,4.29,0,0,0-2.71,1.43c-4.72,5.11-11,6.73-17.55,7.56A2.33,2.33,0,0,1,31,88.72c-0.43-1.35.44-2.15,1.48-2.81,1.25-.79,2.75-1.15,3.79-2.28,1.57-1.71,1.36-2.57-.86-3.08a39.06,39.06,0,0,1-17.95-9C6,61.14,6.42,45.89,18.35,35.8c15.49-13.1,43-12.54,57.83,1.23C81.08,41.61,84,47.19,84,55.4ZM41,84.67a15.58,15.58,0,0,0,8.14-5.36,5,5,0,0,1,3.6-1.81,38.89,38.89,0,0,0,13-3.82,31.52,31.52,0,0,0,5.65-3.55C83.14,61,83.15,46.88,71.24,37.91,62.11,31,51.61,29.27,40.5,30.62c-8.13,1-15.52,3.89-21.43,9.81-8.09,8.1-8.11,19-.12,27.1C24.1,72.78,30.48,75.65,37.61,77c3.79,0.74,4.33,1.64,3.43,5.53l-0.39,1.69a1,1,0,0,0-.25.37C40.56,84.94,40.8,84.82,41,84.67Z" transform="translate(-1.58 -1.58)"/><path class="cls-2" d="M40.65,84.27L41,82.58c0.9-3.89.35-4.79-3.43-5.53-7.13-1.4-13.51-4.26-18.66-9.52-8-8.15-8-19,.12-27.1,5.91-5.92,13.3-8.81,21.43-9.81,11.1-1.36,21.61.41,30.74,7.29,11.91,9,11.9,23.07.14,32.22a31.52,31.52,0,0,1-5.65,3.55,38.89,38.89,0,0,1-13,3.82,5,5,0,0,0-3.6,1.81A15.58,15.58,0,0,1,41,84.67Z" transform="translate(-1.58 -1.58)"/><path class="cls-2" d="M41,84.67c-0.22.15-.45,0.27-0.62,0a1,1,0,0,1,.25-0.37Z" transform="translate(-1.58 -1.58)"/></g><g id="Label"><text class="cls-5" transform="translate(17.78 108.71)">Comentario</text></g></svg>