<svg id="Layer_16" data-name="Layer 16" xmlns="http://www.w3.org/2000/svg" viewBox="0 0 114.08 115.44"><defs><style>.cls-1{fill:#fcfcfc;stroke-width:2px;}.cls-1,.cls-4{stroke:#58c347;stroke-miterlimit:10;}.cls-2{fill:#56c244;}.cls-3,.cls-5{fill:#58c347;}.cls-4{fill:none;stroke-width:9px;}.cls-5{font-size:14px;font-family:Helvetica Neue;font-weight:700;}</style></defs><title>image</title><rect class="cls-1" x="1" y="1" width="112.08" height="112.08" rx="9.35" ry="9.35"/><text x="-1.58" y="-1.58"/><g id="Image"><path class="cls-2" d="M53.12,73.53c-9.06,0-18.12,0-27.18,0-1.71,0-2.21-.44-2.17-2.17,0.11-5.25.05-10.51,0-15.76a4.29,4.29,0,0,1,.71-2.56C28.25,47.52,32,42,35.6,36.33c1-1.6,1.49-1,2.34,0C44,44,50.08,51.6,56.08,59.28c1,1.32,1.67,1.29,2.84.25,1.87-1.67,3.93-3.13,5.84-4.76,0.93-.8,1.51-0.83,2.42.14q7.17,7.67,14.5,15.2a2.76,2.76,0,0,1,.75,2.71C82.14,74,81,73.5,80.31,73.5,71.25,73.54,62.18,73.53,53.12,73.53Z" transform="translate(-1.58 -1.58)"/><path class="cls-2" d="M83.38,42.75a7.44,7.44,0,0,1-7.62,7.65A7.7,7.7,0,0,1,68,42.76a7.85,7.85,0,0,1,7.85-7.84A7.61,7.61,0,0,1,83.38,42.75Z" transform="translate(-1.58 -1.58)"/><rect class="cls-3" x="87.98" y="70.02" width="9.15" height="28.83"/><rect class="cls-3" x="89.33" y="72.34" width="9.77" height="27.54" transform="translate(178.73 -9.69) rotate(90)"/><polyline class="cls-4" points="70.58 84.52 11.69 84.52 11.69 20.6 92.63 20.6 92.63 61.58"/></g><g id="Label"><text class="cls-5" transform="translate(32.17 108.71)">Imagen</text></g></svg>