<svg id="Imagen" xmlns="http://www.w3.org/2000/svg" viewBox="0 0 112.08 113.82"><defs><style>.cls-1{fill:#58c347;}.cls-2{font-size:14px;font-family:Helvetica Neue;font-weight:700;}.cls-2,.cls-3{fill:#fff;}.cls-4{fill:none;stroke:#fff;stroke-miterlimit:10;stroke-width:9px;}</style></defs><title>image</title><rect class="cls-1" width="112.08" height="112.08" rx="9.35" ry="9.35"/><text x="-2.58" y="-2.58"/><text class="cls-2" transform="translate(31.17 102.21)">Imagen</text><path class="cls-3" d="M55,63c-8.06,0-16.12,0-24.18,0-1.52,0-2-.39-1.93-1.93,0.1-4.67,0-9.35,0-14a3.82,3.82,0,0,1,.63-2.28c3.32-4.94,6.65-9.88,9.86-14.89,0.91-1.42,1.33-.92,2.08,0,5.37,6.8,10.8,13.55,16.13,20.38,0.92,1.17,1.49,1.15,2.52.22,1.66-1.49,3.49-2.79,5.19-4.24a1.28,1.28,0,0,1,2.15.12Q73.82,53.28,80.33,60A2.46,2.46,0,0,1,81,62.38c-0.24,1.08-1.22.61-1.87,0.61C71.07,63,63,63,55,63Z" transform="translate(-2.58 -2.58)"/><path class="cls-3" d="M81.87,35.64a6.62,6.62,0,0,1-6.78,6.81,6.85,6.85,0,0,1-6.9-6.79,7,7,0,0,1,7-7A6.77,6.77,0,0,1,81.87,35.64Z" transform="translate(-2.58 -2.58)"/><rect class="cls-3" x="84.78" y="58.72" width="8.14" height="25.65"/><rect class="cls-3" x="87.15" y="61.96" width="8.69" height="24.5" transform="translate(163.12 -19.88) rotate(90)"/><polyline class="cls-4" points="69.31 71.62 16.92 71.62 16.92 14.76 88.91 14.76 88.91 51.22"/></svg>