<svg id="Layer_16" data-name="Layer 16" xmlns="http://www.w3.org/2000/svg" viewBox="0 0 114.08 116.44"><defs><style>.cls-1{fill:#fcfcfc;stroke:#01a4a9;stroke-miterlimit:10;stroke-width:2px;}.cls-2,.cls-3{fill:#01a4a9;}.cls-3{font-size:14px;font-family:Helvetica Neue;font-weight:700;}</style></defs><title>modal</title><rect class="cls-1" x="1" y="1" width="112.08" height="112.08" rx="9.35" ry="9.35"/><text x="-1.58" y="-1.58"/><g id="Layer_12" data-name="Layer 12"><path class="cls-2" d="M42.45,58.53H55.64a0.4,0.4,0,1,0,0-.81H42.45A0.4,0.4,0,1,0,42.45,58.53ZM94.66,79.18H67.31a1.55,1.55,0,0,0-.51.08L61.9,81H49l-4.25-1.67a1.56,1.56,0,0,0-.57-0.11H15.7a1.47,1.47,0,0,0-1.5,1.45v2.65a7.32,7.32,0,0,0,7.46,7.15H88.72a7.31,7.31,0,0,0,7.44-7.15V80.62A1.47,1.47,0,0,0,94.66,79.18ZM42.45,61.07H55.64a0.4,0.4,0,1,0,0-.81H42.45A0.4,0.4,0,1,0,42.45,61.07Zm0,2.53H55.64a0.4,0.4,0,1,0,0-.81H42.45A0.4,0.4,0,1,0,42.45,63.6Zm-3.54-5.83H32.75V63.7h6.16V57.77ZM22.8,75.68H87.56a1.47,1.47,0,0,0,1.5-1.45V58.33l-3,2.33V72.79H24.3V35.46H30V32.57H22.8A1.47,1.47,0,0,0,21.3,34V74.24A1.47,1.47,0,0,0,22.8,75.68ZM30,38.24h-1.5A1.47,1.47,0,0,0,27,39.69V69.06a1.47,1.47,0,0,0,1.5,1.45H81.64a1.47,1.47,0,0,0,1.5-1.45V62.92l-3,2.33v2.36H30V38.24Z" transform="translate(-1.58 -1.58)"/><path class="cls-2" d="M95.63,11.44H40.4A7.3,7.3,0,0,0,33,18.59V46.77a7.29,7.29,0,0,0,7.42,7.15H74.6v8.89a1.44,1.44,0,0,0,.85,1.3A1.55,1.55,0,0,0,77,63.93L90,53.92h5.67a7.29,7.29,0,0,0,7.42-7.15V18.59A7.3,7.3,0,0,0,95.63,11.44Zm4.42,35.33A4.34,4.34,0,0,1,95.63,51h-6.2a1.54,1.54,0,0,0-.94.32L77.61,59.79V52.47A1.48,1.48,0,0,0,76.1,51H40.4A4.34,4.34,0,0,1,36,46.77V18.59a4.34,4.34,0,0,1,4.42-4.26H95.63a4.34,4.34,0,0,1,4.42,4.26V46.77ZM67.58,25.85l-5.44-.7-2.48-4.84a4.56,4.56,0,0,0-8,0l-2.37,4.77-5.55.78a4.41,4.41,0,0,0-3.62,2.94,4.18,4.18,0,0,0,1.13,4.43l4,3.64-0.95,5.32A4.22,4.22,0,0,0,46,46.41a4.6,4.6,0,0,0,4.72.33l4.82-2.51,5,2.51a4.6,4.6,0,0,0,4.72-.33A4.22,4.22,0,0,0,67,42.18L66,37l4-3.77a4.18,4.18,0,0,0,1.13-4.43A4.41,4.41,0,0,0,67.58,25.85Zm0.11,5-4,3.77a3.07,3.07,0,0,0-.94,2.78l0.95,5.32a1,1,0,0,1-.43,1,1.08,1.08,0,0,1-1.13.08l-5-2.51a3.37,3.37,0,0,0-3,0l-5,2.51A1.08,1.08,0,0,1,48,43.75a1,1,0,0,1-.43-1l0.95-5.32a3.07,3.07,0,0,0-.94-2.78l-4-3.77a1,1,0,0,1-.27-1.06,1,1,0,0,1,.87-0.71l5.55-.78A3.25,3.25,0,0,0,52.2,26.6l2.48-4.84a1.1,1.1,0,0,1,1.93,0l2.48,4.84a3.25,3.25,0,0,0,2.45,1.72l5.55,0.78a1,1,0,0,1,.87.71A1,1,0,0,1,67.69,30.87Zm25.69,3.55H77a1.64,1.64,0,1,0,0,3.28H93.37A1.64,1.64,0,1,0,93.37,34.42Zm0-7H77a1.64,1.64,0,1,0,0,3.28H93.37A1.64,1.64,0,1,0,93.37,27.44Zm0-7H77a1.64,1.64,0,1,0,0,3.28H93.37A1.64,1.64,0,1,0,93.37,20.47Zm0,20.93H77a1.64,1.64,0,1,0,0,3.28H93.37A1.64,1.64,0,1,0,93.37,41.4Z" transform="translate(-1.58 -1.58)"/></g><g id="Label"><text class="cls-3" transform="translate(36.32 109.71)">Modal</text></g></svg>