<svg id="Layer_16" data-name="Layer 16" xmlns="http://www.w3.org/2000/svg" viewBox="0 0 114.08 116.44"><defs><style>.cls-1{fill:#fcfcfc;stroke:#f74343;stroke-miterlimit:10;stroke-width:2px;}.cls-2,.cls-3{fill:#f74343;}.cls-3{font-size:14px;font-family:Helvetica Neue;font-weight:700;}</style></defs><title>pdf</title><rect class="cls-1" x="1" y="1" width="112.08" height="112.08" rx="9.35" ry="9.35"/><text x="-1.58" y="-1.58"/><g id="Layer_13" data-name="Layer 13"><path class="cls-2" d="M76,44.09H45.67a2.48,2.48,0,1,0,0,5H76A2.48,2.48,0,1,0,76,44.09Z" transform="translate(-1.58 -1.58)"/><path class="cls-2" d="M76,53.54H45.67a2.48,2.48,0,1,0,0,5H76A2.48,2.48,0,1,0,76,53.54Z" transform="translate(-1.58 -1.58)"/><path class="cls-2" d="M77.23,63H62.07c-0.69,0-1.24,1.11-1.24,2.48S61.39,68,62.07,68H77.23c0.69,0,1.24-1.11,1.24-2.48S77.91,63,77.23,63Z" transform="translate(-1.58 -1.58)"/><path class="cls-2" d="M76,34.64H45.67a2.48,2.48,0,1,0,0,5H76A2.48,2.48,0,1,0,76,34.64Z" transform="translate(-1.58 -1.58)"/><path class="cls-2" d="M85.77,9.52H49.58a9,9,0,0,0-6.4,2.65L26.75,28.57a8.67,8.67,0,0,0-2.5,6.13V84.16a7.24,7.24,0,0,0,7.24,7.24H85.77A7.24,7.24,0,0,0,93,84.16V16.75A7.23,7.23,0,0,0,85.77,9.52ZM84.52,84H34.39a4,4,0,0,1-4-4L30.21,34.7A2.7,2.7,0,0,1,31,32.76L47.38,16.39h0a3.08,3.08,0,0,1,2.18-.89H85.77A1.28,1.28,0,0,1,87,16.75L87.2,81.31A2.68,2.68,0,0,1,84.52,84Z" transform="translate(-1.58 -1.58)"/><text x="-1.58" y="-1.58"/></g><g id="Label"><text class="cls-3" transform="translate(43.03 109.71)">PDF</text></g></svg>