<svg id="PDF" xmlns="http://www.w3.org/2000/svg" viewBox="0 0 112.08 113.82"><defs><style>.cls-1{fill:#f74343;}.cls-2{font-size:14px;font-family:Helvetica Neue;font-weight:700;}.cls-2,.cls-3{fill:#fff;}</style></defs><title>pdf</title><rect class="cls-1" width="112.08" height="112.08" rx="9.35" ry="9.35"/><text x="-2.58" y="-2.58"/><text class="cls-2" transform="translate(42.03 102.21)">PDF</text><path class="cls-3" d="M74.18,44H47a2.22,2.22,0,1,0,0,4.44H74.18A2.22,2.22,0,1,0,74.18,44Z" transform="translate(-2.58 -2.58)"/><path class="cls-3" d="M74.18,52.43H47a2.22,2.22,0,1,0,0,4.44H74.18A2.22,2.22,0,1,0,74.18,52.43Z" transform="translate(-2.58 -2.58)"/><path class="cls-3" d="M75.29,60.9H61.71c-0.61,0-1.11,1-1.11,2.22s0.5,2.22,1.11,2.22H75.29c0.61,0,1.11-1,1.11-2.22S75.9,60.9,75.29,60.9Z" transform="translate(-2.58 -2.58)"/><path class="cls-3" d="M74.18,35.5H47a2.22,2.22,0,1,0,0,4.44H74.18A2.22,2.22,0,1,0,74.18,35.5Z" transform="translate(-2.58 -2.58)"/><path class="cls-3" d="M82.93,13H50.52a8.07,8.07,0,0,0-5.73,2.38L30.07,30.06a7.77,7.77,0,0,0-2.23,5.49v44.3a6.48,6.48,0,0,0,6.48,6.48H82.93a6.48,6.48,0,0,0,6.48-6.48V19.48A6.48,6.48,0,0,0,82.93,13ZM81.82,79.71H36.92a3.61,3.61,0,0,1-3.61-3.6L33.17,35.55a2.42,2.42,0,0,1,.69-1.73l14.7-14.67h0a2.76,2.76,0,0,1,1.95-.8H82.93a1.15,1.15,0,0,1,1.15,1.15L84.22,77.3A2.4,2.4,0,0,1,81.82,79.71Z" transform="translate(-2.58 -2.58)"/><text x="-2.58" y="-2.58"/></svg>