<svg id="Icon_layer" xmlns="http://www.w3.org/2000/svg" viewBox="0 0 106.75 101.1"><defs><style>.cls-1,.cls-2{fill:#f34f16;}.cls-2{font-size:14px;font-family:Helvetica Neue;font-weight:700;}</style></defs><title>select</title><g id="Layer_11" data-name="Layer 11"><path class="cls-1" d="M49.48,50.29a5.62,5.62,0,0,0-.53.52,6.57,6.57,0,0,1,0-.73V45.44a0.73,0.73,0,0,0-.73-0.73H45.55a0.73,0.73,0,0,0-.73.73V57.34c0,1,0,2.05-.06,2.83a0.69,0.69,0,0,0,.7.73h2a0.83,0.83,0,0,0,.81-0.72,5.64,5.64,0,0,1,.1-0.72,6.42,6.42,0,0,0,.46.58,3.68,3.68,0,0,0,2.75,1.1c2.6,0,5.15-2,5.15-6.09,0-3.44-1.92-5.63-4.58-5.63A4.17,4.17,0,0,0,49.48,50.29Zm1.11,7.64A1.71,1.71,0,0,1,49,56.59a4,4,0,0,1,0-.57v-1.5A4.27,4.27,0,0,1,49,54a1.66,1.66,0,0,1,1.62-1.39c1.37,0,2,1.14,2,2.67C52.57,57,51.8,57.93,50.59,57.93ZM35,62.55a6.69,6.69,0,1,0-6.69-6.69A6.7,6.7,0,0,0,35,62.55Zm0-11.46a4.76,4.76,0,1,1-4.77,4.76A4.77,4.77,0,0,1,35,51.09Zm30.64-8.56,1.89,4.67,2.66,6.56,2.62-5.82L84.42,59.5l3.86-3.86L76.71,44.07,80,42.58l2.49-1.12L71.77,37.09,71.54,37l-9.7-3.94,1.63,4Zm44.2,38.72L99.31,76.58a13,13,0,0,0-4.42-.93H22.37a13.05,13.05,0,0,0-4.43.93L7.36,81.25A3.85,3.85,0,0,0,5.25,84.5v4.79A2.31,2.31,0,0,0,7.56,91.6H109.69A2.31,2.31,0,0,0,112,89.29V84.5A3.85,3.85,0,0,0,109.89,81.25ZM78.52,88.07H38.73a1.22,1.22,0,1,1,0-2.43h39.8A1.22,1.22,0,0,1,78.52,88.07ZM35,41.09a6.69,6.69,0,1,0-6.69-6.69A6.7,6.7,0,0,0,35,41.09Zm0-11.46a4.77,4.77,0,1,1-4.77,4.76A4.77,4.77,0,0,1,35,29.63ZM22.26,73.55H95a8.1,8.1,0,0,0,8.09-8.09V25A8.1,8.1,0,0,0,95,16.93H22.26A8.1,8.1,0,0,0,14.18,25V65.47A8.1,8.1,0,0,0,22.26,73.55ZM21.11,25a1.16,1.16,0,0,1,1.16-1.15H95A1.16,1.16,0,0,1,96.14,25V65.47A1.16,1.16,0,0,1,95,66.62H22.26a1.16,1.16,0,0,1-1.16-1.15V25Zm27,15.35a4.32,4.32,0,0,0,2.58-.74c0.33-.24.56-0.49,0.58-0.49a2.11,2.11,0,0,1,.15.49,0.85,0.85,0,0,0,.84.49h2.23a0.62,0.62,0,0,0,.62-0.73c-0.05-.56-0.07-1.27-0.07-2V33.6c0-2.8-1.34-4.95-5.2-4.95a10.94,10.94,0,0,0-4,.71,0.85,0.85,0,0,0-.47,1l0.33,1.21a0.6,0.6,0,0,0,.85.38,6.86,6.86,0,0,1,2.51-.52c1.48,0,1.82.5,1.82,1v0a3.59,3.59,0,0,1-.73.07c-3.42.18-5.77,1.52-5.77,4.33A3.52,3.52,0,0,0,48.14,40.37ZM50.35,35a0.6,0.6,0,0,1,.73.42V35.9a2.45,2.45,0,0,1,0,.59,1.52,1.52,0,0,1-1.41,1,1,1,0,0,1-1.16-1.07C48.46,35.62,49.14,35.15,50.35,35ZM35,37.43a3,3,0,1,0-3-3A3,3,0,0,0,35,37.43Z" transform="translate(-5.25 -16.93)"/></g><g id="Label"><text class="cls-2" transform="translate(20.72 94.37)">Selección</text></g></svg>