<svg id="Layer_16" data-name="Layer 16" xmlns="http://www.w3.org/2000/svg" viewBox="0 0 114.08 115.44"><defs><style>.cls-1{fill:#fff;stroke:#8c264d;stroke-miterlimit:10;stroke-width:2px;}.cls-2,.cls-3{fill:#8c264d;}.cls-3{font-size:14px;font-family:Helvetica Neue;font-weight:700;}</style></defs><title>slider</title><rect class="cls-1" x="1" y="1" width="112.08" height="112.08" rx="9.35" ry="9.35"/><text x="-1.58" y="-1.58"/><path class="cls-2" d="M82.69,31.58l-2.32-2.32h4.92A6.74,6.74,0,0,1,92,36V50.38h4.52V36A11.27,11.27,0,0,0,85.29,24.73H80.37l2.32-2.32-3.2-3.2L71.71,27l7.78,7.78Z" transform="translate(-1.58 -1.58)"/><path class="cls-2" d="M26.85,76.22l2.68,2.68H27.06a6.76,6.76,0,0,1-6.76-6.73V61.76H15.77V72.17A11.28,11.28,0,0,0,27.06,83.42h2.47L26.85,86.1,30,89.3l8.14-8.14L30,73Z" transform="translate(-1.58 -1.58)"/><path class="cls-2" d="M80.26,70.79l-7,6.45-9.37-9.05L44.51,94.57H98.77ZM64.52,75L75.29,85.45l3.14-3.25-1.87-1.81,3.16-2.93L89.52,90H53.45Z" transform="translate(-1.58 -1.58)"/><circle class="cls-2" cx="86.49" cy="65.66" r="2.87"/><polygon class="cls-2" points="11.11 39.95 54.18 39.95 54.18 49.79 58.7 49.79 58.7 35.43 6.58 35.43 6.58 66.63 15.25 66.63 15.25 62.1 11.11 62.1 11.11 39.95"/><rect class="cls-2" x="23.84" y="62.1" width="13.19" height="4.52"/><polygon class="cls-2" points="31.89 20.64 60.4 20.64 60.4 31.84 64.92 31.84 64.92 16.12 27.37 16.12 27.37 31.84 31.89 31.84 31.89 20.64"/><polygon class="cls-2" points="64.35 49.79 68.88 49.79 68.88 39.96 85.26 40.04 85.28 35.52 64.35 35.42 64.35 49.79"/><polygon class="cls-2" points="92.7 35.43 92.7 39.95 102.98 39.95 102.98 64.36 107.5 64.36 107.5 35.43 92.7 35.43"/><path class="cls-2" d="M43.35,94.57H99.78V56.16H43.35V94.57Zm4.52-33.89H95.25V90H47.87V60.68Z" transform="translate(-1.58 -1.58)"/><g id="Label"><text class="cls-3" transform="translate(37.87 108.71)">Slider</text></g></svg>