<svg id="Texto" xmlns="http://www.w3.org/2000/svg" viewBox="0 0 112.08 113.82"><defs><style>.cls-1{fill:#007ccf;}.cls-2{font-size:14px;font-family:Helvetica Neue;font-weight:700;}.cls-2,.cls-4{fill:#fff;}.cls-3{letter-spacing:-1px;}</style></defs><title>text</title><rect class="cls-1" width="112.08" height="112.08" rx="9.35" ry="9.35"/><text x="-2.58" y="-2.58"/><text class="cls-2" transform="translate(38.02 102.21)"><tspan class="cls-3">T</tspan><tspan x="7" y="0">exto</tspan></text><g id="Text"><path class="cls-4" d="M20.48,16.51H81.93L82,38.85H79.09c-1-7.08-3.72-14.43-8.27-16.92Q67,19.87,59.36,19.67V71.34q0,5.41,2,7.19t8.2,1.77v2.49H33.14V80.3q6,0,7.95-1.8t2-7.16V19.67q-7.48.19-11.46,2.26c-4.88,2.56-7.64,9.91-8.27,16.92H20.39Z" transform="translate(-2.58 -2.58)"/><rect class="cls-4" x="88.27" y="9.29" width="6.01" height="74.46"/></g></svg>