<svg id="Layer_16" data-name="Layer 16" xmlns="http://www.w3.org/2000/svg" viewBox="0 0 114.08 116.44"><defs><style>.cls-1{fill:#fcfcfc;stroke:#007ccf;stroke-miterlimit:10;stroke-width:2px;}.cls-2,.cls-3{fill:#007ccf;}.cls-3{font-size:14px;font-family:Helvetica Neue;font-weight:700;}.cls-4{letter-spacing:-1px;}</style></defs><title>text</title><rect class="cls-1" x="1" y="1" width="112.08" height="112.08" rx="9.35" ry="9.35"/><text x="-1.58" y="-1.58"/><g id="Text"><path class="cls-2" d="M10.85,17.51H85.54l0.12,27.15H82.09C80.91,36.07,77.56,27.13,72,24.1q-4.66-2.51-13.93-2.74v62.8q0,6.58,2.39,8.74t10,2.16v3H26.24V95q7.27,0,9.66-2.19t2.4-8.71V21.35q-9.09.23-13.93,2.74c-5.94,3.11-9.29,12-10.05,20.57H10.73Z" transform="translate(-1.58 -1.58)"/><rect class="cls-2" x="94.8" y="10.29" width="7.3" height="90.5"/></g><g id="Label"><text class="cls-3" transform="translate(39.02 109.71)"><tspan class="cls-4">T</tspan><tspan x="7" y="0">exto</tspan></text></g></svg>