<svg id="Video" xmlns="http://www.w3.org/2000/svg" viewBox="0 0 112.08 113.82"><defs><style>.cls-1{fill:#eb190a;}.cls-2{font-size:14px;font-family:Helvetica Neue;font-weight:700;}.cls-2,.cls-3{fill:#fff;}</style></defs><title>video</title><rect class="cls-1" width="112.08" height="112.08" rx="9.35" ry="9.35"/><text x="-2.58" y="-2.58"/><text class="cls-2" transform="translate(37.38 102.21)">V<tspan x="8.57" y="0">ideo</tspan></text><path class="cls-3" d="M97.08,13.33H20.17a2.6,2.6,0,0,0-2.61,2.61V83.73a2.6,2.6,0,0,0,2.61,2.61H97.08a2.6,2.6,0,0,0,2.61-2.61V15.94A2.6,2.6,0,0,0,97.08,13.33ZM94.47,78.7H47.61a4.2,4.2,0,0,1-7.8,0h-17V75.56h17a4.2,4.2,0,0,1,7.8,0H94.47V78.7Zm0-10.62H22.78V18.55h71.7V68.08Z" transform="translate(-2.58 -2.58)"/><path class="cls-3" d="M70,42.09c1.31,0.76,1.31,2,0,2.76L50.51,56.12c-1.32.76-2.39,0.14-2.39-1.38V32.22c0-1.52,1.08-2.14,2.39-1.38Z" transform="translate(-2.58 -2.58)"/></svg>